<svg xmlns="http://www.w3.org/2000/svg" viewBox="0 0 600 600" width="600" height="600" role="img" aria-label="Product illustration">
  <defs>
    <linearGradient id="gblazer1" x1="0" y1="0" x2="1" y2="1">
      <stop offset="0" stop-color="#6366F1"/><stop offset="1" stop-color="#22D3EE"/>
    </linearGradient>
    <radialGradient id="hblazer1" cx="0.28" cy="0.18" r="0.85">
      <stop offset="0" stop-color="#ffffff" stop-opacity="0.42"/><stop offset="1" stop-color="#ffffff" stop-opacity="0"/>
    </radialGradient>
  </defs>
  <rect width="600" height="600" fill="url(#gblazer1)"/>
  <rect width="600" height="600" fill="url(#hblazer1)"/>
  <circle cx="300" cy="300" r="176" fill="#ffffff" fill-opacity="0.14"/>
  <circle cx="300" cy="300" r="228" fill="none" stroke="#ffffff" stroke-opacity="0.14" stroke-width="2"/>
  <g transform="translate(156 156) scale(12)" fill="none" stroke="#ffffff" stroke-width="1.35" stroke-linecap="round" stroke-linejoin="round" stroke-opacity="0.96"><path d="M9 2.6 4.2 5.4l1.6 3.4 1.4-.8v11.4h9.6V8l1.4.8 1.6-3.4L15 2.6 12 6.4z"/><path d="M9 2.6 12 6.4l3-3.8"/><path d="M12 6.4v13"/></g>
  <path d="M0 470c120-42 210 26 330-6s170-64 270-30v166H0z" fill="#0b1020" fill-opacity="0.10"/>
</svg>