<svg xmlns="http://www.w3.org/2000/svg" viewBox="0 0 600 600" width="600" height="600" role="img" aria-label="Product illustration">
  <defs>
    <linearGradient id="gvase2" x1="0" y1="0" x2="1" y2="1">
      <stop offset="0" stop-color="#F59E0B"/><stop offset="1" stop-color="#EF4444"/>
    </linearGradient>
    <radialGradient id="hvase2" cx="0.28" cy="0.18" r="0.85">
      <stop offset="0" stop-color="#ffffff" stop-opacity="0.42"/><stop offset="1" stop-color="#ffffff" stop-opacity="0"/>
    </radialGradient>
  </defs>
  <rect width="600" height="600" fill="url(#gvase2)"/>
  <rect width="600" height="600" fill="url(#hvase2)"/>
  <circle cx="300" cy="300" r="176" fill="#ffffff" fill-opacity="0.14"/>
  <circle cx="300" cy="300" r="228" fill="none" stroke="#ffffff" stroke-opacity="0.14" stroke-width="2"/>
  <g transform="translate(156 156) scale(12)" fill="none" stroke="#ffffff" stroke-width="1.35" stroke-linecap="round" stroke-linejoin="round" stroke-opacity="0.96"><path d="M9.5 2.5h5l-.8 3.4c2.6 1.4 4.3 4 4.3 7 0 4.6-3 8.6-6 8.6s-6-4-6-8.6c0-3 1.7-5.6 4.3-7z"/><path d="M8.6 12.5h6.8"/></g>
  <path d="M0 470c120-42 210 26 330-6s170-64 270-30v166H0z" fill="#0b1020" fill-opacity="0.10"/>
</svg>